<?xml version="1.0" encoding="UTF-8" standalone="no"?>
<svg
   version="1.1"
   width="6.6700397cm"
   height="6.1959233cm"
   viewBox="0 0 26259.999 24393.4"
   id="svg600"
   sodipodi:docname="hbridge-principle.svg"
   inkscape:version="1.1.2 (0a00cf5339, 2022-02-04)"
   xmlns:inkscape="http://www.inkscape.org/namespaces/inkscape"
   xmlns:sodipodi="http://sodipodi.sourceforge.net/DTD/sodipodi-0.dtd"
   xmlns="http://www.w3.org/2000/svg"
   xmlns:svg="http://www.w3.org/2000/svg">
  <defs
     id="defs604" />
  <sodipodi:namedview
     id="namedview602"
     pagecolor="#ffffff"
     bordercolor="#000000"
     borderopacity="0.25"
     inkscape:pageshadow="2"
     inkscape:pageopacity="0.0"
     inkscape:pagecheckerboard="0"
     inkscape:document-units="cm"
     showgrid="false"
     inkscape:zoom="2.7866349"
     inkscape:cx="120.57554"
     inkscape:cy="133.8532"
     inkscape:window-width="1473"
     inkscape:window-height="991"
     inkscape:window-x="26"
     inkscape:window-y="23"
     inkscape:window-maximized="0"
     inkscape:current-layer="svg600" />
  <title
     id="title2">SVG Picture created as hbridge-principle.svg date 2022/09/13 19:08:21 </title>
  <desc
     id="desc4">Picture generated by Eeschema-SVG </desc>
  <g
     style="fill:#000000;fill-opacity:1;stroke:#000000;stroke-linecap:round;stroke-linejoin:round;stroke-opacity:1"
     id="g6"
     transform="translate(-14870,-28396)" />
  <g
     style="fill:#000000;fill-opacity:0;stroke:#000000;stroke-width:60;stroke-linecap:round;stroke-linejoin:round;stroke-opacity:1"
     id="g118"
     transform="translate(-14870,-28396)">
    <g
       id="g8" />
    <g
       style="fill:#840000;fill-opacity:0;stroke:#840000;stroke-width:60;stroke-linecap:round;stroke-linejoin:round;stroke-opacity:1"
       id="g12">
      <path
         style="fill:none;fill-opacity:0;stroke:#840000;stroke-width:60;stroke-linecap:round;stroke-linejoin:round;stroke-opacity:1"
         d="m 28800,40400 h -1500 l 1000,-500 -1000,-500 h 1500"
         id="path10" />
    </g>
    <g
       style="fill:#840000;fill-opacity:0;stroke:#840000;stroke-width:100;stroke-linecap:round;stroke-linejoin:round;stroke-opacity:1"
       id="g16">
      <circle
         cx="28100"
         cy="39900"
         r="1280"
         id="circle14" />
    </g>
    <g
       style="fill:#840000;fill-opacity:0;stroke:#840000;stroke-width:60;stroke-linecap:round;stroke-linejoin:round;stroke-opacity:1"
       id="g28">
      <path
         style="fill:none;fill-opacity:0;stroke:#840000;stroke-width:60;stroke-linecap:round;stroke-linejoin:round;stroke-opacity:1"
         d="m 30500,39900 h -200"
         id="path18" />
      <path
         style="fill:none;fill-opacity:0;stroke:#840000;stroke-width:60;stroke-linecap:round;stroke-linejoin:round;stroke-opacity:1"
         d="m 29380,39900 h 160"
         id="path20" />
      <path
         style="fill:none;fill-opacity:0;stroke:#840000;stroke-width:60;stroke-linecap:round;stroke-linejoin:round;stroke-opacity:1"
         d="m 26820,39900 h -140"
         id="path22" />
      <path
         style="fill:none;fill-opacity:0;stroke:#840000;stroke-width:60;stroke-linecap:round;stroke-linejoin:round;stroke-opacity:1"
         d="m 26700,39900 h -200"
         id="path24" />
      <path
         d="M 26500,39900 H 25500"
         id="path26" />
    </g>
    <g
       style="fill:#006464;fill-opacity:0;stroke:#006464;stroke-width:60;stroke-linecap:round;stroke-linejoin:round;stroke-opacity:1"
       id="g40">
      <text
         x="26000"
         y="39800"
         textLength="679.05511"
         font-size="666.654px"
         lengthAdjust="spacingAndGlyphs"
         text-anchor="middle"
         opacity="0"
         id="text30">+</text>
      <g
         class="stroked-text"
         id="g38">
        <desc
           id="desc32">+</desc>
        <path
           d="m 25809,39585 h 381"
           id="path34" />
        <path
           d="m 26000,39776 v -381"
           id="path36" />
      </g>
    </g>
    <g
       style="fill:#a90000;fill-opacity:0;stroke:#a90000;stroke-width:60;stroke-linecap:round;stroke-linejoin:round;stroke-opacity:1"
       id="g52">
      <text
         x="26000"
         y="40500"
         textLength="536.18109"
         font-size="666.654px"
         lengthAdjust="spacingAndGlyphs"
         text-anchor="middle"
         opacity="0"
         id="text42">1</text>
      <g
         class="stroked-text"
         id="g50">
        <desc
           id="desc44">1</desc>
        <path
           d="m 26142,40476 h -285"
           id="path46" />
        <path
           d="m 26000,40476 v -500 l -48,71 -48,48 -47,24"
           id="path48" />
      </g>
    </g>
    <g
       style="fill:#840000;fill-opacity:0;stroke:#840000;stroke-width:60;stroke-linecap:round;stroke-linejoin:round;stroke-opacity:1"
       id="g56">
      <path
         d="m 29500,39900 h 1000"
         id="path54" />
    </g>
    <g
       style="fill:#006464;fill-opacity:0;stroke:#006464;stroke-width:60;stroke-linecap:round;stroke-linejoin:round;stroke-opacity:1"
       id="g66">
      <text
         x="30000"
         y="39800"
         textLength="679.05511"
         font-size="666.654px"
         lengthAdjust="spacingAndGlyphs"
         text-anchor="middle"
         opacity="0"
         id="text58">-</text>
      <g
         class="stroked-text"
         id="g64">
        <desc
           id="desc60">-</desc>
        <path
           d="m 29809,39585 h 381"
           id="path62" />
      </g>
    </g>
    <g
       style="fill:#a90000;fill-opacity:0;stroke:#a90000;stroke-width:60;stroke-linecap:round;stroke-linejoin:round;stroke-opacity:1"
       id="g76">
      <text
         x="30000"
         y="40500"
         textLength="536.18109"
         font-size="666.654px"
         lengthAdjust="spacingAndGlyphs"
         text-anchor="middle"
         opacity="0"
         id="text68">2</text>
      <g
         class="stroked-text"
         id="g74">
        <desc
           id="desc70">2</desc>
        <path
           d="m 29857,40023 23,-23 48,-24 h 119 l 48,24 24,23 23,48 v 48 l -23,71 -286,286 h 309"
           id="path72" />
      </g>
    </g>
    <g
       style="fill:#006464;fill-opacity:0;stroke:#006464;stroke-width:60;stroke-linecap:round;stroke-linejoin:round;stroke-opacity:1"
       id="g116">
      <text
         x="28500"
         y="36650"
         textLength="1060"
         font-size="666.654px"
         lengthAdjust="spacingAndGlyphs"
         text-anchor="middle"
         opacity="0"
         id="text78">M?</text>
      <g
         class="stroked-text"
         id="g88">
        <desc
           id="desc80">M?</desc>
        <path
           d="m 28119,36626 v -500 l 166,357 167,-357 v 500"
           id="path82" />
        <path
           d="m 28761,36578 24,24 -24,24 -23,-24 23,-24 v 48"
           id="path84" />
        <path
           d="m 28666,36150 48,-24 h 119 l 47,24 24,47 v 48 l -24,47 -23,24 -48,24 -24,24 -24,47 v 24"
           id="path86" />
      </g>
      <text
         x="28500"
         y="37650"
         textLength="3512.3623"
         font-size="666.654px"
         lengthAdjust="spacingAndGlyphs"
         text-anchor="middle"
         opacity="0"
         id="text90">Motor_DC</text>
      <g
         class="stroked-text"
         id="g114">
        <desc
           id="desc92">Motor_DC</desc>
        <path
           d="m 26892,37626 v -500 l 167,357 167,-357 v 500"
           id="path94" />
        <path
           d="m 27535,37626 -47,-24 -24,-24 -24,-48 v -142 l 24,-48 24,-24 47,-24 h 72 l 47,24 24,24 24,48 v 142 l -24,48 -24,24 -47,24 h -72"
           id="path96" />
        <path
           d="m 27845,37292 h 190"
           id="path98" />
        <path
           d="m 27916,37126 v 428 l 24,48 48,24 h 47"
           id="path100" />
        <path
           d="m 28273,37626 -47,-24 -24,-24 -24,-48 v -142 l 24,-48 24,-24 47,-24 h 72 l 47,24 24,24 24,48 v 142 l -24,48 -24,24 -47,24 h -72"
           id="path102" />
        <path
           d="m 28654,37626 v -334"
           id="path104" />
        <path
           d="m 28654,37388 24,-48 24,-24 48,-24 h 47"
           id="path106" />
        <path
           d="m 28845,37673 h 381"
           id="path108" />
        <path
           d="m 29345,37626 v -500 h 119 l 71,24 48,47 24,48 23,95 v 71 l -23,96 -24,47 -48,48 -71,24 h -119"
           id="path110" />
        <path
           d="m 30130,37578 -23,24 -72,24 h -47 l -72,-24 -47,-48 -24,-47 -24,-96 v -71 l 24,-95 24,-48 47,-47 72,-24 h 47 l 72,24 23,23"
           id="path112" />
      </g>
    </g>
  </g>
  <g
     style="fill:#006464;fill-opacity:0;stroke:#006464;stroke-width:60;stroke-linecap:round;stroke-linejoin:round;stroke-opacity:1"
     id="g144"
     transform="translate(-14870,-28396)">
    <g
       id="g120" />
    <g
       style="fill:#840000;fill-opacity:0;stroke:#840000;stroke-width:60;stroke-linecap:round;stroke-linejoin:round;stroke-opacity:1"
       id="g128">
      <path
         style="fill:none;fill-opacity:0;stroke:#840000;stroke-width:60;stroke-linecap:round;stroke-linejoin:round;stroke-opacity:1"
         d="m 27500,30200 300,-500"
         id="path122" />
      <path
         style="fill:none;fill-opacity:0;stroke:#840000;stroke-width:60;stroke-linecap:round;stroke-linejoin:round;stroke-opacity:1"
         d="M 27800,30700 V 29700"
         id="path124" />
      <path
         style="fill:none;fill-opacity:0;stroke:#840000;stroke-width:60;stroke-linecap:round;stroke-linejoin:round;stroke-opacity:1"
         d="m 27800,29700 300,500"
         id="path126" />
    </g>
    <g
       style="fill:#006464;fill-opacity:0;stroke:#006464;stroke-width:60;stroke-linecap:round;stroke-linejoin:round;stroke-opacity:1"
       id="g142">
      <text
         x="27800"
         y="28949.961"
         textLength="1488.5826"
         font-size="666.654px"
         lengthAdjust="spacingAndGlyphs"
         text-anchor="middle"
         opacity="0"
         id="text130">VCC</text>
      <g
         class="stroked-text"
         id="g140">
        <desc
           id="desc132">VCC</desc>
        <path
           d="m 27133,28426 167,500 166,-500"
           id="path134" />
        <path
           d="m 27919,28878 -24,24 -72,24 h -47 l -72,-24 -47,-48 -24,-47 -24,-96 v -71 l 24,-95 24,-48 47,-48 72,-23 h 47 l 72,23 24,24"
           id="path136" />
        <path
           d="m 28419,28878 -24,24 -72,24 h -47 l -72,-24 -47,-48 -24,-47 -24,-96 v -71 l 24,-95 24,-48 47,-48 72,-23 h 47 l 72,23 24,24"
           id="path138" />
      </g>
    </g>
  </g>
  <g
     style="fill:#006464;fill-opacity:0;stroke:#006464;stroke-width:60;stroke-linecap:round;stroke-linejoin:round;stroke-opacity:1"
     id="g228"
     transform="translate(-14870,-28396)">
    <g
       id="g146" />
    <g
       style="fill:#840000;fill-opacity:0;stroke:#840000;stroke-width:60;stroke-linecap:round;stroke-linejoin:round;stroke-opacity:1"
       id="g152">
      <path
         style="fill:none;fill-opacity:0;stroke:#840000;stroke-width:60;stroke-linecap:round;stroke-linejoin:round;stroke-opacity:1"
         d="m 19150,45750 750,-750"
         id="path148" />
      <path
         style="fill:none;fill-opacity:0;stroke:#840000;stroke-width:60;stroke-linecap:round;stroke-linejoin:round;stroke-opacity:1"
         d="m 19150,46250 750,750 v 0"
         id="path150" />
    </g>
    <g
       style="fill:#840000;fill-opacity:0;stroke:#840000;stroke-width:200;stroke-linecap:round;stroke-linejoin:round;stroke-opacity:1"
       id="g156">
      <path
         style="fill:none;fill-opacity:0;stroke:#840000;stroke-width:200;stroke-linecap:round;stroke-linejoin:round;stroke-opacity:1"
         d="m 19150,45250 v 1500 0"
         id="path154" />
    </g>
    <g
       style="fill:#840000;fill-opacity:1;stroke:#840000;stroke-width:60;stroke-linecap:round;stroke-linejoin:round;stroke-opacity:1"
       id="g160">
      <path
         style="fill:#840000;fill-opacity:1;fill-rule:evenodd;stroke:#840000;stroke-width:60;stroke-linecap:round;stroke-linejoin:round;stroke-opacity:1"
         d="m 19400,46700 200,-200 200,400 z"
         id="path158" />
    </g>
    <g
       style="fill:#840000;fill-opacity:0;stroke:#840000;stroke-width:100;stroke-linecap:round;stroke-linejoin:round;stroke-opacity:1"
       id="g164">
      <circle
         cx="19400"
         cy="46000"
         r="1110"
         id="circle162" />
    </g>
    <g
       style="fill:#840000;fill-opacity:0;stroke:#840000;stroke-width:60;stroke-linecap:round;stroke-linejoin:round;stroke-opacity:1"
       id="g168">
      <path
         d="M 19900,45000 V 44000"
         id="path166" />
    </g>
    <g
       style="fill:#a90000;fill-opacity:0;stroke:#a90000;stroke-width:60;stroke-linecap:round;stroke-linejoin:round;stroke-opacity:1"
       id="g182">
      <g
         transform="rotate(-90,20000,44500)"
         id="g172">
        <text
           x="20000"
           y="45000"
           textLength="536.18109"
           font-size="666.654px"
           lengthAdjust="spacingAndGlyphs"
           text-anchor="middle"
           opacity="0"
           id="text170">1</text>
      </g>
      <g
         class="stroked-text"
         id="g180">
        <desc
           id="desc174">1</desc>
        <path
           d="m 20476,44357 v 285"
           id="path176" />
        <path
           d="m 20476,44500 h -500 l 71,47 48,48 24,47"
           id="path178" />
      </g>
    </g>
    <g
       style="fill:#840000;fill-opacity:0;stroke:#840000;stroke-width:60;stroke-linecap:round;stroke-linejoin:round;stroke-opacity:1"
       id="g186">
      <path
         d="M 19150,46000 H 16900"
         id="path184" />
    </g>
    <g
       style="fill:#a90000;fill-opacity:0;stroke:#a90000;stroke-width:60;stroke-linecap:round;stroke-linejoin:round;stroke-opacity:1"
       id="g196">
      <text
         x="18025"
         y="46600"
         textLength="536.18109"
         font-size="666.654px"
         lengthAdjust="spacingAndGlyphs"
         text-anchor="middle"
         opacity="0"
         id="text188">2</text>
      <g
         class="stroked-text"
         id="g194">
        <desc
           id="desc190">2</desc>
        <path
           d="m 17882,46123 23,-23 48,-24 h 119 l 48,24 24,23 23,48 v 48 l -23,71 -286,286 h 309"
           id="path192" />
      </g>
    </g>
    <g
       style="fill:#840000;fill-opacity:0;stroke:#840000;stroke-width:60;stroke-linecap:round;stroke-linejoin:round;stroke-opacity:1"
       id="g200">
      <path
         d="m 19900,47000 v 1000"
         id="path198" />
    </g>
    <g
       style="fill:#a90000;fill-opacity:0;stroke:#a90000;stroke-width:60;stroke-linecap:round;stroke-linejoin:round;stroke-opacity:1"
       id="g212">
      <g
         transform="rotate(-90,20000,47500)"
         id="g204">
        <text
           x="20000"
           y="48000"
           textLength="536.18109"
           font-size="666.654px"
           lengthAdjust="spacingAndGlyphs"
           text-anchor="middle"
           opacity="0"
           id="text202">3</text>
      </g>
      <g
         class="stroked-text"
         id="g210">
        <desc
           id="desc206">3</desc>
        <path
           d="m 19976,47666 v -309 l 190,166 v -71 l 24,-48 24,-24 47,-23 h 119 l 48,23 24,24 24,48 v 143 l -24,47 -24,24"
           id="path208" />
      </g>
    </g>
    <g
       style="fill:#006464;fill-opacity:0;stroke:#006464;stroke-width:60;stroke-linecap:round;stroke-linejoin:round;stroke-opacity:1"
       id="g226">
      <text
         x="21831.26"
         y="45749.922"
         textLength="1060"
         font-size="666.654px"
         lengthAdjust="spacingAndGlyphs"
         text-anchor="middle"
         opacity="0"
         id="text214">Q3</text>
      <g
         class="stroked-text"
         id="g224">
        <desc
           id="desc216">Q3</desc>
        <path
           d="m 21783,45773 -48,-24 -47,-47 -72,-72 -47,-23 h -48"
           id="path218" />
        <path
           d="m 21545,45726 -48,-24 -47,-48 -24,-95 v -167 l 24,-95 47,-48 48,-23 h 95 l 48,23 47,48 24,95 v 167 l -24,95 -47,48 -48,24 h -95"
           id="path220" />
        <path
           d="m 21926,45226 h 309 l -166,190 h 71 l 48,24 24,24 23,47 v 119 l -23,48 -24,24 -48,24 h -143 l -47,-24 -24,-24"
           id="path222" />
      </g>
    </g>
  </g>
  <g
     style="fill:#006464;fill-opacity:0;stroke:#006464;stroke-width:60;stroke-linecap:round;stroke-linejoin:round;stroke-opacity:1"
     id="g312"
     transform="translate(-14870,-28396)">
    <g
       id="g230" />
    <g
       style="fill:#840000;fill-opacity:0;stroke:#840000;stroke-width:60;stroke-linecap:round;stroke-linejoin:round;stroke-opacity:1"
       id="g236">
      <path
         style="fill:none;fill-opacity:0;stroke:#840000;stroke-width:60;stroke-linecap:round;stroke-linejoin:round;stroke-opacity:1"
         d="m 36850,33350 -750,750"
         id="path232" />
      <path
         style="fill:none;fill-opacity:0;stroke:#840000;stroke-width:60;stroke-linecap:round;stroke-linejoin:round;stroke-opacity:1"
         d="m 36850,32850 -750,-750 v 0"
         id="path234" />
    </g>
    <g
       style="fill:#840000;fill-opacity:0;stroke:#840000;stroke-width:200;stroke-linecap:round;stroke-linejoin:round;stroke-opacity:1"
       id="g240">
      <path
         style="fill:none;fill-opacity:0;stroke:#840000;stroke-width:200;stroke-linecap:round;stroke-linejoin:round;stroke-opacity:1"
         d="m 36850,33850 v -1500 0"
         id="path238" />
    </g>
    <g
       style="fill:#840000;fill-opacity:1;stroke:#840000;stroke-width:60;stroke-linecap:round;stroke-linejoin:round;stroke-opacity:1"
       id="g244">
      <path
         style="fill:#840000;fill-opacity:1;fill-rule:evenodd;stroke:#840000;stroke-width:60;stroke-linecap:round;stroke-linejoin:round;stroke-opacity:1"
         d="m 36200,32400 200,-200 200,400 z"
         id="path242" />
    </g>
    <g
       style="fill:#840000;fill-opacity:0;stroke:#840000;stroke-width:100;stroke-linecap:round;stroke-linejoin:round;stroke-opacity:1"
       id="g248">
      <circle
         cx="36600"
         cy="33100"
         r="1110"
         id="circle246" />
    </g>
    <g
       style="fill:#840000;fill-opacity:0;stroke:#840000;stroke-width:60;stroke-linecap:round;stroke-linejoin:round;stroke-opacity:1"
       id="g252">
      <path
         d="m 36850,33100 h 2250"
         id="path250" />
    </g>
    <g
       style="fill:#a90000;fill-opacity:0;stroke:#a90000;stroke-width:60;stroke-linecap:round;stroke-linejoin:round;stroke-opacity:1"
       id="g264">
      <text
         x="37975"
         y="33700"
         textLength="536.18109"
         font-size="666.654px"
         lengthAdjust="spacingAndGlyphs"
         text-anchor="middle"
         opacity="0"
         id="text254">1</text>
      <g
         class="stroked-text"
         id="g262">
        <desc
           id="desc256">1</desc>
        <path
           d="m 38117,33676 h -285"
           id="path258" />
        <path
           d="m 37975,33676 v -500 l -48,71 -48,48 -47,24"
           id="path260" />
      </g>
    </g>
    <g
       style="fill:#840000;fill-opacity:0;stroke:#840000;stroke-width:60;stroke-linecap:round;stroke-linejoin:round;stroke-opacity:1"
       id="g268">
      <path
         d="m 36100,34100 v 1000"
         id="path266" />
    </g>
    <g
       style="fill:#a90000;fill-opacity:0;stroke:#a90000;stroke-width:60;stroke-linecap:round;stroke-linejoin:round;stroke-opacity:1"
       id="g280">
      <g
         transform="rotate(-90,36200,34600)"
         id="g272">
        <text
           x="36200"
           y="35100"
           textLength="536.18109"
           font-size="666.654px"
           lengthAdjust="spacingAndGlyphs"
           text-anchor="middle"
           opacity="0"
           id="text270">2</text>
      </g>
      <g
         class="stroked-text"
         id="g278">
        <desc
           id="desc274">2</desc>
        <path
           d="m 36223,34742 -23,-23 -24,-48 v -119 l 24,-48 23,-24 48,-23 h 48 l 71,23 286,286 v -309"
           id="path276" />
      </g>
    </g>
    <g
       style="fill:#840000;fill-opacity:0;stroke:#840000;stroke-width:60;stroke-linecap:round;stroke-linejoin:round;stroke-opacity:1"
       id="g284">
      <path
         d="M 36100,32100 V 31100"
         id="path282" />
    </g>
    <g
       style="fill:#a90000;fill-opacity:0;stroke:#a90000;stroke-width:60;stroke-linecap:round;stroke-linejoin:round;stroke-opacity:1"
       id="g296">
      <g
         transform="rotate(-90,36200,31600)"
         id="g288">
        <text
           x="36200"
           y="32100"
           textLength="536.18109"
           font-size="666.654px"
           lengthAdjust="spacingAndGlyphs"
           text-anchor="middle"
           opacity="0"
           id="text286">3</text>
      </g>
      <g
         class="stroked-text"
         id="g294">
        <desc
           id="desc290">3</desc>
        <path
           d="m 36176,31766 v -309 l 190,166 v -71 l 24,-48 24,-24 47,-23 h 119 l 48,23 24,24 24,48 v 143 l -24,47 -24,24"
           id="path292" />
      </g>
    </g>
    <g
       style="fill:#006464;fill-opacity:0;stroke:#006464;stroke-width:60;stroke-linecap:round;stroke-linejoin:round;stroke-opacity:1"
       id="g310">
      <text
         x="34468.738"
         y="32849.961"
         textLength="1060"
         font-size="666.654px"
         lengthAdjust="spacingAndGlyphs"
         text-anchor="middle"
         opacity="0"
         id="text298">Q2</text>
      <g
         class="stroked-text"
         id="g308">
        <desc
           id="desc300">Q2</desc>
        <path
           d="m 34421,32873 -48,-24 -48,-47 -71,-72 -48,-23 h -47"
           id="path302" />
        <path
           d="m 34182,32826 -47,-24 -48,-48 -24,-95 v -167 l 24,-95 48,-48 47,-23 h 96 l 47,23 48,48 24,95 v 167 l -24,95 -48,48 -47,24 h -96"
           id="path304" />
        <path
           d="m 34587,32373 24,-24 48,-23 h 119 l 47,23 24,24 24,48 v 47 l -24,72 -286,286 h 310"
           id="path306" />
      </g>
    </g>
  </g>
  <g
     style="fill:#006464;fill-opacity:0;stroke:#006464;stroke-width:60;stroke-linecap:round;stroke-linejoin:round;stroke-opacity:1"
     id="g340"
     transform="translate(-14870,-28396)">
    <g
       id="g314" />
    <g
       style="fill:#840000;fill-opacity:0;stroke:#840000;stroke-width:60;stroke-linecap:round;stroke-linejoin:round;stroke-opacity:1"
       id="g318">
      <path
         style="fill:none;fill-opacity:0;stroke:#840000;stroke-width:60;stroke-linecap:round;stroke-linejoin:round;stroke-opacity:1"
         d="m 15400,39900 h -160"
         id="path316" />
    </g>
    <g
       style="fill:#840000;fill-opacity:1;stroke:#840000;stroke-width:60;stroke-linecap:round;stroke-linejoin:round;stroke-opacity:1"
       id="g322">
      <rect
         x="14900"
         y="39850"
         width="340"
         height="100"
         rx="0.000000"
         id="rect320" />
    </g>
    <g
       style="fill:#840000;fill-opacity:0;stroke:#840000;stroke-width:60;stroke-linecap:round;stroke-linejoin:round;stroke-opacity:1"
       id="g326">
      <path
         d="m 15400,39900 h 1500"
         id="path324" />
    </g>
    <g
       style="fill:#a90000;fill-opacity:0;stroke:#a90000;stroke-width:60;stroke-linecap:round;stroke-linejoin:round;stroke-opacity:1"
       id="g338">
      <text
         x="16150"
         y="39800"
         textLength="536.18109"
         font-size="666.654px"
         lengthAdjust="spacingAndGlyphs"
         text-anchor="middle"
         opacity="0"
         id="text328">1</text>
      <g
         class="stroked-text"
         id="g336">
        <desc
           id="desc330">1</desc>
        <path
           d="m 16292,39776 h -285"
           id="path332" />
        <path
           d="m 16150,39776 v -500 l -48,71 -48,48 -47,24"
           id="path334" />
      </g>
    </g>
  </g>
  <g
     style="fill:#a90000;fill-opacity:0;stroke:#a90000;stroke-width:60;stroke-linecap:round;stroke-linejoin:round;stroke-opacity:1"
     id="g362"
     transform="translate(-14870,-28396)">
    <g
       id="g342" />
    <g
       style="fill:#840000;fill-opacity:0;stroke:#840000;stroke-width:60;stroke-linecap:round;stroke-linejoin:round;stroke-opacity:1"
       id="g346">
      <path
         style="fill:none;fill-opacity:0;stroke:#840000;stroke-width:60;stroke-linecap:round;stroke-linejoin:round;stroke-opacity:1"
         d="m 28200,50500 v 500 h 500 l -500,500 -500,-500 h 500"
         id="path344" />
    </g>
    <g
       style="fill:#006464;fill-opacity:0;stroke:#006464;stroke-width:60;stroke-linecap:round;stroke-linejoin:round;stroke-opacity:1"
       id="g360">
      <text
         x="28200"
         y="52749.961"
         textLength="1583.8188"
         font-size="666.654px"
         lengthAdjust="spacingAndGlyphs"
         text-anchor="middle"
         opacity="0"
         id="text348">GND</text>
      <g
         class="stroked-text"
         id="g358">
        <desc
           id="desc350">GND</desc>
        <path
           d="m 27819,52249 -48,-23 h -71 l -72,23 -48,48 -23,48 -24,95 v 71 l 24,96 23,47 48,48 72,24 h 47 l 72,-24 23,-24 v -167 h -95"
           id="path352" />
        <path
           d="m 28057,52726 v -500 l 285,500 v -500"
           id="path354" />
        <path
           d="m 28580,52726 v -500 h 120 l 71,23 48,48 23,48 24,95 v 71 l -24,96 -23,47 -48,48 -71,24 h -120"
           id="path356" />
      </g>
    </g>
  </g>
  <g
     style="fill:#006464;fill-opacity:0;stroke:#006464;stroke-width:60;stroke-linecap:round;stroke-linejoin:round;stroke-opacity:1"
     id="g448"
     transform="translate(-14870,-28396)">
    <g
       id="g364" />
    <g
       style="fill:#840000;fill-opacity:0;stroke:#840000;stroke-width:60;stroke-linecap:round;stroke-linejoin:round;stroke-opacity:1"
       id="g370">
      <path
         style="fill:none;fill-opacity:0;stroke:#840000;stroke-width:60;stroke-linecap:round;stroke-linejoin:round;stroke-opacity:1"
         d="m 19150,32950 750,750"
         id="path366" />
      <path
         style="fill:none;fill-opacity:0;stroke:#840000;stroke-width:60;stroke-linecap:round;stroke-linejoin:round;stroke-opacity:1"
         d="m 19150,32450 750,-750 v 0"
         id="path368" />
    </g>
    <g
       style="fill:#840000;fill-opacity:0;stroke:#840000;stroke-width:200;stroke-linecap:round;stroke-linejoin:round;stroke-opacity:1"
       id="g374">
      <path
         style="fill:none;fill-opacity:0;stroke:#840000;stroke-width:200;stroke-linecap:round;stroke-linejoin:round;stroke-opacity:1"
         d="m 19150,33450 v -1500 0"
         id="path372" />
    </g>
    <g
       style="fill:#840000;fill-opacity:1;stroke:#840000;stroke-width:60;stroke-linecap:round;stroke-linejoin:round;stroke-opacity:1"
       id="g378">
      <path
         style="fill:#840000;fill-opacity:1;fill-rule:evenodd;stroke:#840000;stroke-width:60;stroke-linecap:round;stroke-linejoin:round;stroke-opacity:1"
         d="m 19800,32000 -200,-200 -200,400 z"
         id="path376" />
    </g>
    <g
       style="fill:#840000;fill-opacity:0;stroke:#840000;stroke-width:100;stroke-linecap:round;stroke-linejoin:round;stroke-opacity:1"
       id="g382">
      <circle
         cx="19400"
         cy="32700"
         r="1110"
         id="circle380" />
    </g>
    <g
       style="fill:#840000;fill-opacity:0;stroke:#840000;stroke-width:60;stroke-linecap:round;stroke-linejoin:round;stroke-opacity:1"
       id="g386">
      <path
         d="M 19150,32700 H 16900"
         id="path384" />
    </g>
    <g
       style="fill:#a90000;fill-opacity:0;stroke:#a90000;stroke-width:60;stroke-linecap:round;stroke-linejoin:round;stroke-opacity:1"
       id="g398">
      <text
         x="18025"
         y="33300"
         textLength="536.18109"
         font-size="666.654px"
         lengthAdjust="spacingAndGlyphs"
         text-anchor="middle"
         opacity="0"
         id="text388">1</text>
      <g
         class="stroked-text"
         id="g396">
        <desc
           id="desc390">1</desc>
        <path
           d="m 18167,33276 h -285"
           id="path392" />
        <path
           d="m 18025,33276 v -500 l -48,71 -48,48 -47,24"
           id="path394" />
      </g>
    </g>
    <g
       style="fill:#840000;fill-opacity:0;stroke:#840000;stroke-width:60;stroke-linecap:round;stroke-linejoin:round;stroke-opacity:1"
       id="g402">
      <path
         d="m 19900,33700 v 1000"
         id="path400" />
    </g>
    <g
       style="fill:#a90000;fill-opacity:0;stroke:#a90000;stroke-width:60;stroke-linecap:round;stroke-linejoin:round;stroke-opacity:1"
       id="g414">
      <g
         transform="rotate(-90,20000,34200)"
         id="g406">
        <text
           x="20000"
           y="34700"
           textLength="536.18109"
           font-size="666.654px"
           lengthAdjust="spacingAndGlyphs"
           text-anchor="middle"
           opacity="0"
           id="text404">2</text>
      </g>
      <g
         class="stroked-text"
         id="g412">
        <desc
           id="desc408">2</desc>
        <path
           d="m 20023,34342 -23,-23 -24,-48 v -119 l 24,-48 23,-24 48,-23 h 48 l 71,23 286,286 v -309"
           id="path410" />
      </g>
    </g>
    <g
       style="fill:#840000;fill-opacity:0;stroke:#840000;stroke-width:60;stroke-linecap:round;stroke-linejoin:round;stroke-opacity:1"
       id="g418">
      <path
         d="M 19900,31700 V 30700"
         id="path416" />
    </g>
    <g
       style="fill:#a90000;fill-opacity:0;stroke:#a90000;stroke-width:60;stroke-linecap:round;stroke-linejoin:round;stroke-opacity:1"
       id="g430">
      <g
         transform="rotate(-90,20000,31200)"
         id="g422">
        <text
           x="20000"
           y="31700"
           textLength="536.18109"
           font-size="666.654px"
           lengthAdjust="spacingAndGlyphs"
           text-anchor="middle"
           opacity="0"
           id="text420">3</text>
      </g>
      <g
         class="stroked-text"
         id="g428">
        <desc
           id="desc424">3</desc>
        <path
           d="m 19976,31366 v -309 l 190,166 v -71 l 24,-48 24,-24 47,-23 h 119 l 48,23 24,24 24,48 v 143 l -24,47 -24,24"
           id="path426" />
      </g>
    </g>
    <g
       style="fill:#006464;fill-opacity:0;stroke:#006464;stroke-width:60;stroke-linecap:round;stroke-linejoin:round;stroke-opacity:1"
       id="g446">
      <text
         x="21531.26"
         y="32949.961"
         textLength="1060"
         font-size="666.654px"
         lengthAdjust="spacingAndGlyphs"
         text-anchor="middle"
         opacity="0"
         id="text432">Q1</text>
      <g
         class="stroked-text"
         id="g444">
        <desc
           id="desc434">Q1</desc>
        <path
           d="m 21483,32973 -48,-24 -47,-47 -72,-72 -47,-23 h -48"
           id="path436" />
        <path
           d="m 21245,32926 -48,-24 -47,-48 -24,-95 v -167 l 24,-95 47,-48 48,-23 h 95 l 48,23 47,48 24,95 v 167 l -24,95 -47,48 -48,24 h -95"
           id="path438" />
        <path
           d="m 21935,32926 h -285"
           id="path440" />
        <path
           d="m 21793,32926 v -500 l -48,71 -48,48 -47,23"
           id="path442" />
      </g>
    </g>
  </g>
  <g
     style="fill:#006464;fill-opacity:0;stroke:#006464;stroke-width:60;stroke-linecap:round;stroke-linejoin:round;stroke-opacity:1"
     id="g534"
     transform="translate(-14870,-28396)">
    <g
       id="g450" />
    <g
       style="fill:#840000;fill-opacity:0;stroke:#840000;stroke-width:60;stroke-linecap:round;stroke-linejoin:round;stroke-opacity:1"
       id="g456">
      <path
         style="fill:none;fill-opacity:0;stroke:#840000;stroke-width:60;stroke-linecap:round;stroke-linejoin:round;stroke-opacity:1"
         d="m 36850,45850 -750,-750"
         id="path452" />
      <path
         style="fill:none;fill-opacity:0;stroke:#840000;stroke-width:60;stroke-linecap:round;stroke-linejoin:round;stroke-opacity:1"
         d="m 36850,46350 -750,750 v 0"
         id="path454" />
    </g>
    <g
       style="fill:#840000;fill-opacity:0;stroke:#840000;stroke-width:200;stroke-linecap:round;stroke-linejoin:round;stroke-opacity:1"
       id="g460">
      <path
         style="fill:none;fill-opacity:0;stroke:#840000;stroke-width:200;stroke-linecap:round;stroke-linejoin:round;stroke-opacity:1"
         d="m 36850,45350 v 1500 0"
         id="path458" />
    </g>
    <g
       style="fill:#840000;fill-opacity:1;stroke:#840000;stroke-width:60;stroke-linecap:round;stroke-linejoin:round;stroke-opacity:1"
       id="g464">
      <path
         style="fill:#840000;fill-opacity:1;fill-rule:evenodd;stroke:#840000;stroke-width:60;stroke-linecap:round;stroke-linejoin:round;stroke-opacity:1"
         d="m 36600,46800 -200,-200 -200,400 z"
         id="path462" />
    </g>
    <g
       style="fill:#840000;fill-opacity:0;stroke:#840000;stroke-width:100;stroke-linecap:round;stroke-linejoin:round;stroke-opacity:1"
       id="g468">
      <circle
         cx="36600"
         cy="46100"
         r="1110"
         id="circle466" />
    </g>
    <g
       style="fill:#840000;fill-opacity:0;stroke:#840000;stroke-width:60;stroke-linecap:round;stroke-linejoin:round;stroke-opacity:1"
       id="g472">
      <path
         d="M 36100,45100 V 44100"
         id="path470" />
    </g>
    <g
       style="fill:#a90000;fill-opacity:0;stroke:#a90000;stroke-width:60;stroke-linecap:round;stroke-linejoin:round;stroke-opacity:1"
       id="g486">
      <g
         transform="rotate(-90,36200,44600)"
         id="g476">
        <text
           x="36200"
           y="45100"
           textLength="536.18109"
           font-size="666.654px"
           lengthAdjust="spacingAndGlyphs"
           text-anchor="middle"
           opacity="0"
           id="text474">1</text>
      </g>
      <g
         class="stroked-text"
         id="g484">
        <desc
           id="desc478">1</desc>
        <path
           d="m 36676,44457 v 285"
           id="path480" />
        <path
           d="m 36676,44600 h -500 l 71,47 48,48 24,47"
           id="path482" />
      </g>
    </g>
    <g
       style="fill:#840000;fill-opacity:0;stroke:#840000;stroke-width:60;stroke-linecap:round;stroke-linejoin:round;stroke-opacity:1"
       id="g490">
      <path
         d="m 36850,46100 h 2250"
         id="path488" />
    </g>
    <g
       style="fill:#a90000;fill-opacity:0;stroke:#a90000;stroke-width:60;stroke-linecap:round;stroke-linejoin:round;stroke-opacity:1"
       id="g500">
      <text
         x="37975"
         y="46700"
         textLength="536.18109"
         font-size="666.654px"
         lengthAdjust="spacingAndGlyphs"
         text-anchor="middle"
         opacity="0"
         id="text492">2</text>
      <g
         class="stroked-text"
         id="g498">
        <desc
           id="desc494">2</desc>
        <path
           d="m 37832,46223 23,-23 48,-24 h 119 l 48,24 24,23 23,48 v 48 l -23,71 -286,286 h 309"
           id="path496" />
      </g>
    </g>
    <g
       style="fill:#840000;fill-opacity:0;stroke:#840000;stroke-width:60;stroke-linecap:round;stroke-linejoin:round;stroke-opacity:1"
       id="g504">
      <path
         d="m 36100,47100 v 1000"
         id="path502" />
    </g>
    <g
       style="fill:#a90000;fill-opacity:0;stroke:#a90000;stroke-width:60;stroke-linecap:round;stroke-linejoin:round;stroke-opacity:1"
       id="g516">
      <g
         transform="rotate(-90,36200,47600)"
         id="g508">
        <text
           x="36200"
           y="48100"
           textLength="536.18109"
           font-size="666.654px"
           lengthAdjust="spacingAndGlyphs"
           text-anchor="middle"
           opacity="0"
           id="text506">3</text>
      </g>
      <g
         class="stroked-text"
         id="g514">
        <desc
           id="desc510">3</desc>
        <path
           d="m 36176,47766 v -309 l 190,166 v -71 l 24,-48 24,-24 47,-23 h 119 l 48,23 24,24 24,48 v 143 l -24,47 -24,24"
           id="path512" />
      </g>
    </g>
    <g
       style="fill:#006464;fill-opacity:0;stroke:#006464;stroke-width:60;stroke-linecap:round;stroke-linejoin:round;stroke-opacity:1"
       id="g532">
      <text
         x="34368.738"
         y="46349.922"
         textLength="1060"
         font-size="666.654px"
         lengthAdjust="spacingAndGlyphs"
         text-anchor="middle"
         opacity="0"
         id="text518">Q4</text>
      <g
         class="stroked-text"
         id="g530">
        <desc
           id="desc520">Q4</desc>
        <path
           d="m 34321,46373 -48,-24 -48,-47 -71,-72 -48,-23 h -47"
           id="path522" />
        <path
           d="m 34082,46326 -47,-24 -48,-48 -24,-95 v -167 l 24,-95 48,-48 47,-23 h 96 l 47,23 48,48 24,95 v 167 l -24,95 -48,48 -47,24 h -96"
           id="path524" />
        <path
           d="m 34725,45992 v 334"
           id="path526" />
        <path
           d="m 34606,45802 -119,357 h 310"
           id="path528" />
      </g>
    </g>
  </g>
  <g
     style="fill:#006464;fill-opacity:0;stroke:#006464;stroke-width:60;stroke-linecap:round;stroke-linejoin:round;stroke-opacity:1"
     id="g550"
     transform="translate(-14870,-28396)">
    <g
       id="g536" />
    <g
       style="fill:#840000;fill-opacity:0;stroke:#840000;stroke-width:60;stroke-linecap:round;stroke-linejoin:round;stroke-opacity:1"
       id="g540">
      <path
         style="fill:none;fill-opacity:0;stroke:#840000;stroke-width:60;stroke-linecap:round;stroke-linejoin:round;stroke-opacity:1"
         d="m 40600,39900 h 160"
         id="path538" />
    </g>
    <g
       style="fill:#840000;fill-opacity:1;stroke:#840000;stroke-width:60;stroke-linecap:round;stroke-linejoin:round;stroke-opacity:1"
       id="g544">
      <rect
         x="40760"
         y="39850"
         width="340"
         height="100"
         rx="0.000000"
         id="rect542" />
    </g>
    <g
       style="fill:#840000;fill-opacity:0;stroke:#840000;stroke-width:60;stroke-linecap:round;stroke-linejoin:round;stroke-opacity:1"
       id="g548">
      <path
         d="M 40600,39900 H 39100"
         id="path546" />
    </g>
  </g>
  <g
     style="fill:#840000;fill-opacity:0;stroke:#840000;stroke-width:60;stroke-linecap:round;stroke-linejoin:round;stroke-opacity:1"
     id="g552"
     transform="translate(-14870,-28396)" />
  <g
     style="fill:#009600;fill-opacity:0;stroke:#009600;stroke-width:60;stroke-linecap:round;stroke-linejoin:round;stroke-opacity:1"
     id="g586"
     transform="translate(-14870,-28396)">
    <path
       d="m 39100,33100 v 6800"
       id="path554" />
    <path
       d="m 27800,30700 h 8300"
       id="path556" />
    <path
       d="m 30500,39900 h 5600"
       id="path558" />
    <path
       d="m 36100,35100 v 4800"
       id="path560" />
    <path
       d="m 19900,30700 h 7900"
       id="path562" />
    <path
       d="m 16900,32700 v 7200"
       id="path564" />
    <path
       d="m 19900,34700 v 5200"
       id="path566" />
    <path
       d="m 36200,48000 -100,100"
       id="path568" />
    <path
       d="m 39100,39900 v 6200"
       id="path570" />
    <path
       d="m 36100,39900 v 4200"
       id="path572" />
    <path
       d="m 16900,39900 v 6100"
       id="path574" />
    <path
       d="m 28200,47979 v 2521"
       id="path576" />
    <path
       d="m 19900,39900 v 4100"
       id="path578" />
    <path
       d="M 19900,48000 H 36200"
       id="path580" />
    <path
       d="m 19900,39900 h 5600"
       id="path582" />
    <path
       d="m 36100,30700 v 400"
       id="path584" />
  </g>
  <g
     style="fill:#009600;fill-opacity:1;stroke:#009600;stroke-width:60;stroke-linecap:round;stroke-linejoin:round;stroke-opacity:1"
     id="g598"
     transform="translate(-14870,-28396)">
    <circle
       cx="27800"
       cy="30700"
       r="180"
       id="circle588" />
    <circle
       cx="36100"
       cy="39900"
       r="180"
       id="circle590" />
    <circle
       cx="39100"
       cy="39900"
       r="180"
       id="circle592" />
    <circle
       cx="19900"
       cy="39900"
       r="180"
       id="circle594" />
    <circle
       cx="16900"
       cy="39900"
       r="180"
       id="circle596" />
  </g>
  <text
     xml:space="preserve"
     style="font-size:1250px;fill:#000000;stroke-width:104.167"
     x="24949.092"
     y="11311.985"
     id="text8623"><tspan
       sodipodi:role="line"
       id="tspan8621"
       style="stroke-width:104.167"
       x="24949.092"
       y="11311.985">0</tspan></text>
</svg>
