<?xml version="1.0" encoding="UTF-8" standalone="no"?>
<svg
   version="1.1"
   width="3.9288588cm"
   height="5.5966358cm"
   viewBox="0 0 15467.948 22034"
   id="svg334"
   sodipodi:docname="hbridge_principle_1.svg"
   inkscape:version="1.1.2 (0a00cf5339, 2022-02-04)"
   xmlns:inkscape="http://www.inkscape.org/namespaces/inkscape"
   xmlns:sodipodi="http://sodipodi.sourceforge.net/DTD/sodipodi-0.dtd"
   xmlns="http://www.w3.org/2000/svg"
   xmlns:svg="http://www.w3.org/2000/svg">
  <defs
     id="defs338" />
  <sodipodi:namedview
     id="namedview336"
     pagecolor="#ffffff"
     bordercolor="#000000"
     borderopacity="0.25"
     inkscape:pageshadow="2"
     inkscape:pageopacity="0.0"
     inkscape:pagecheckerboard="0"
     inkscape:document-units="cm"
     showgrid="false"
     inkscape:zoom="0.9852242"
     inkscape:cx="114.18721"
     inkscape:cy="207.56697"
     inkscape:window-width="1846"
     inkscape:window-height="1016"
     inkscape:window-x="0"
     inkscape:window-y="0"
     inkscape:window-maximized="1"
     inkscape:current-layer="svg334" />
  <title
     id="title2">SVG Picture created as hbridge_principle_1.svg date 2022/09/19 19:47:29 </title>
  <desc
     id="desc4">Picture generated by Eeschema-SVG </desc>
  <g
     style="fill:#000000;fill-opacity:1;stroke:#000000;stroke-linecap:round;stroke-linejoin:round;stroke-opacity:1"
     id="g6"
     transform="translate(-46570,-19696)" />
  <g
     style="fill:#000000;fill-opacity:0;stroke:#000000;stroke-width:60;stroke-linecap:round;stroke-linejoin:round;stroke-opacity:1"
     id="g20"
     transform="translate(-46570,-19696)">
    <g
       id="g8" />
    <g
       style="fill:#840000;fill-opacity:0;stroke:#840000;stroke-width:60;stroke-linecap:round;stroke-linejoin:round;stroke-opacity:1"
       id="g18">
      <path
         style="fill:none;fill-opacity:0;stroke:#840000;stroke-width:60;stroke-linecap:round;stroke-linejoin:round;stroke-opacity:1"
         d="m 52250,41450 h 500"
         id="path10" />
      <path
         style="fill:none;fill-opacity:0;stroke:#840000;stroke-width:60;stroke-linecap:round;stroke-linejoin:round;stroke-opacity:1"
         d="m 52450,41700 h 100"
         id="path12" />
      <path
         style="fill:none;fill-opacity:0;stroke:#840000;stroke-width:60;stroke-linecap:round;stroke-linejoin:round;stroke-opacity:1"
         d="m 52500,41200 v -500"
         id="path14" />
      <path
         style="fill:none;fill-opacity:0;stroke:#840000;stroke-width:60;stroke-linecap:round;stroke-linejoin:round;stroke-opacity:1"
         d="M 53000,41200 H 52000"
         id="path16" />
    </g>
  </g>
  <g
     style="fill:#840000;fill-opacity:0;stroke:#840000;stroke-width:60;stroke-linecap:round;stroke-linejoin:round;stroke-opacity:1"
     id="g54"
     transform="translate(-46570,-19696)">
    <g
       id="g32">
      <circle
         cx="59100"
         cy="39500"
         r="200"
         id="circle22" />
      <path
         style="fill:none;fill-opacity:0;stroke:#840000;stroke-width:60;stroke-linecap:round;stroke-linejoin:round;stroke-opacity:1"
         d="m 59000,39300 -600,-1200"
         id="path24" />
      <circle
         cx="59100"
         cy="37900"
         r="200"
         id="circle26" />
      <path
         d="m 59100,39700 v 1000"
         id="path28" />
      <path
         d="M 59100,37700 V 36700"
         id="path30" />
    </g>
    <g
       style="fill:#006464;fill-opacity:0;stroke:#006464;stroke-width:60;stroke-linecap:round;stroke-linejoin:round;stroke-opacity:1"
       id="g52">
      <text
         x="61007.441"
         y="38449.961"
         textLength="2012.3622"
         font-size="666.654px"
         lengthAdjust="spacingAndGlyphs"
         text-anchor="middle"
         opacity="0"
         id="text34">SW4A</text>
      <g
         class="stroked-text"
         id="g50">
        <desc
           id="desc36">SW4A</desc>
        <path
           d="m 60126,38402 71,24 h 119 l 48,-24 24,-24 24,-48 v -47 l -24,-48 -24,-24 -48,-23 -95,-24 -47,-24 -24,-24 -24,-48 v -47 l 24,-48 24,-24 47,-23 h 119 l 72,23"
           id="path38" />
        <path
           d="m 60578,37926 119,500 96,-358 95,358 119,-500"
           id="path40" />
        <path
           d="m 61412,38092 v 334"
           id="path42" />
        <path
           d="m 61293,37902 -119,357 h 309"
           id="path44" />
        <path
           d="m 61650,38283 h 238"
           id="path46" />
        <path
           d="m 61602,38426 167,-500 166,500"
           id="path48" />
      </g>
    </g>
  </g>
  <g
     style="fill:#006464;fill-opacity:0;stroke:#006464;stroke-width:60;stroke-linecap:round;stroke-linejoin:round;stroke-opacity:1"
     id="g88"
     transform="translate(-46570,-19696)">
    <g
       id="g56" />
    <g
       style="fill:#840000;fill-opacity:0;stroke:#840000;stroke-width:60;stroke-linecap:round;stroke-linejoin:round;stroke-opacity:1"
       id="g68">
      <circle
         cx="47300"
         cy="39500"
         r="200"
         id="circle58" />
      <path
         style="fill:none;fill-opacity:0;stroke:#840000;stroke-width:60;stroke-linecap:round;stroke-linejoin:round;stroke-opacity:1"
         d="m 47200,39300 -600,-1200"
         id="path60" />
      <circle
         cx="47300"
         cy="37900"
         r="200"
         id="circle62" />
      <path
         d="m 47300,39700 v 1000"
         id="path64" />
      <path
         d="M 47300,37700 V 36700"
         id="path66" />
    </g>
    <g
       style="fill:#006464;fill-opacity:0;stroke:#006464;stroke-width:60;stroke-linecap:round;stroke-linejoin:round;stroke-opacity:1"
       id="g86">
      <text
         x="49007.441"
         y="38449.961"
         textLength="2012.3622"
         font-size="666.654px"
         lengthAdjust="spacingAndGlyphs"
         text-anchor="middle"
         opacity="0"
         id="text70">SW3A</text>
      <g
         class="stroked-text"
         id="g84">
        <desc
           id="desc72">SW3A</desc>
        <path
           d="m 48126,38402 71,24 h 119 l 48,-24 24,-24 24,-48 v -47 l -24,-48 -24,-24 -48,-23 -95,-24 -47,-24 -24,-24 -24,-48 v -47 l 24,-48 24,-24 47,-23 h 119 l 72,23"
           id="path74" />
        <path
           d="m 48578,37926 119,500 96,-358 95,358 119,-500"
           id="path76" />
        <path
           d="m 49150,37926 h 309 l -166,190 h 71 l 48,24 23,24 24,47 v 119 l -24,48 -23,24 -48,24 h -143 l -47,-24 -24,-24"
           id="path78" />
        <path
           d="m 49650,38283 h 238"
           id="path80" />
        <path
           d="m 49602,38426 167,-500 166,500"
           id="path82" />
      </g>
    </g>
  </g>
  <g
     style="fill:#006464;fill-opacity:0;stroke:#006464;stroke-width:60;stroke-linecap:round;stroke-linejoin:round;stroke-opacity:1"
     id="g210"
     transform="translate(-46570,-19696)">
    <g
       id="g90" />
    <g
       style="fill:#840000;fill-opacity:0;stroke:#840000;stroke-width:60;stroke-linecap:round;stroke-linejoin:round;stroke-opacity:1"
       id="g92" />
    <g
       style="fill:#840000;fill-opacity:0;stroke:#840000;stroke-width:100;stroke-linecap:round;stroke-linejoin:round;stroke-opacity:1"
       id="g96">
      <circle
         cx="52900"
         cy="31500"
         r="1170"
         id="circle94" />
    </g>
    <g
       style="fill:#840000;fill-opacity:0;stroke:#840000;stroke-width:60;stroke-linecap:round;stroke-linejoin:round;stroke-opacity:1"
       id="g108">
      <path
         style="fill:none;fill-opacity:0;stroke:#840000;stroke-width:60;stroke-linecap:round;stroke-linejoin:round;stroke-opacity:1"
         d="m 54000,32000 h 300 v -1000 h -300"
         id="path98" />
      <path
         style="fill:none;fill-opacity:0;stroke:#840000;stroke-width:60;stroke-linecap:round;stroke-linejoin:round;stroke-opacity:1"
         d="m 51800,32000 h -300 v -1000 h 300"
         id="path100" />
      <path
         style="fill:none;fill-opacity:0;stroke:#840000;stroke-width:60;stroke-linecap:round;stroke-linejoin:round;stroke-opacity:1"
         d="m 53600,32000 h -1500 l 1000,-500 -1000,-500 h 1500"
         id="path102" />
      <path
         style="fill:none;fill-opacity:0;stroke:#840000;stroke-width:60;stroke-linecap:round;stroke-linejoin:round;stroke-opacity:1"
         d="m 51500,31500 h -200"
         id="path104" />
      <path
         d="M 51300,31500 H 50300"
         id="path106" />
    </g>
    <g
       style="fill:#006464;fill-opacity:0;stroke:#006464;stroke-width:60;stroke-linecap:round;stroke-linejoin:round;stroke-opacity:1"
       id="g120">
      <text
         x="50800"
         y="31400"
         textLength="679.05511"
         font-size="666.654px"
         lengthAdjust="spacingAndGlyphs"
         text-anchor="middle"
         opacity="0"
         id="text110">+</text>
      <g
         class="stroked-text"
         id="g118">
        <desc
           id="desc112">+</desc>
        <path
           d="m 50609,31185 h 381"
           id="path114" />
        <path
           d="m 50800,31376 v -381"
           id="path116" />
      </g>
    </g>
    <g
       style="fill:#a90000;fill-opacity:0;stroke:#a90000;stroke-width:60;stroke-linecap:round;stroke-linejoin:round;stroke-opacity:1"
       id="g132">
      <text
         x="50800"
         y="32100"
         textLength="536.18109"
         font-size="666.654px"
         lengthAdjust="spacingAndGlyphs"
         text-anchor="middle"
         opacity="0"
         id="text122">1</text>
      <g
         class="stroked-text"
         id="g130">
        <desc
           id="desc124">1</desc>
        <path
           d="m 50942,32076 h -285"
           id="path126" />
        <path
           d="m 50800,32076 v -500 l -48,71 -48,48 -47,24"
           id="path128" />
      </g>
    </g>
    <g
       style="fill:#840000;fill-opacity:0;stroke:#840000;stroke-width:60;stroke-linecap:round;stroke-linejoin:round;stroke-opacity:1"
       id="g136">
      <path
         d="m 54300,31500 h 1000"
         id="path134" />
    </g>
    <g
       style="fill:#006464;fill-opacity:0;stroke:#006464;stroke-width:60;stroke-linecap:round;stroke-linejoin:round;stroke-opacity:1"
       id="g146">
      <text
         x="54800"
         y="31400"
         textLength="679.05511"
         font-size="666.654px"
         lengthAdjust="spacingAndGlyphs"
         text-anchor="middle"
         opacity="0"
         id="text138">-</text>
      <g
         class="stroked-text"
         id="g144">
        <desc
           id="desc140">-</desc>
        <path
           d="m 54609,31185 h 381"
           id="path142" />
      </g>
    </g>
    <g
       style="fill:#a90000;fill-opacity:0;stroke:#a90000;stroke-width:60;stroke-linecap:round;stroke-linejoin:round;stroke-opacity:1"
       id="g156">
      <text
         x="54800"
         y="32100"
         textLength="536.18109"
         font-size="666.654px"
         lengthAdjust="spacingAndGlyphs"
         text-anchor="middle"
         opacity="0"
         id="text148">2</text>
      <g
         class="stroked-text"
         id="g154">
        <desc
           id="desc150">2</desc>
        <path
           d="m 54657,31623 23,-23 48,-24 h 119 l 48,24 24,23 23,48 v 48 l -23,71 -286,286 h 309"
           id="path152" />
      </g>
    </g>
    <g
       style="fill:#006464;fill-opacity:0;stroke:#006464;stroke-width:60;stroke-linecap:round;stroke-linejoin:round;stroke-opacity:1"
       id="g208">
      <text
         x="52800"
         y="28350"
         textLength="1060"
         font-size="666.654px"
         lengthAdjust="spacingAndGlyphs"
         text-anchor="middle"
         opacity="0"
         id="text158">M?</text>
      <g
         class="stroked-text"
         id="g168">
        <desc
           id="desc160">M?</desc>
        <path
           d="m 52419,28326 v -500 l 166,357 167,-357 v 500"
           id="path162" />
        <path
           d="m 53061,28278 24,24 -24,24 -23,-24 23,-24 v 48"
           id="path164" />
        <path
           d="m 52966,27850 48,-24 h 119 l 47,24 24,47 v 48 l -24,47 -23,24 -48,24 -24,24 -24,47 v 24"
           id="path166" />
      </g>
      <text
         x="52800"
         y="29350"
         textLength="5107.6377"
         font-size="666.654px"
         lengthAdjust="spacingAndGlyphs"
         text-anchor="middle"
         opacity="0"
         id="text170">Motor_DC_ALT</text>
      <g
         class="stroked-text"
         id="g206">
        <desc
           id="desc172">Motor_DC_ALT</desc>
        <path
           d="m 50395,29326 v -500 l 166,357 167,-357 v 500"
           id="path174" />
        <path
           d="m 51038,29326 -48,-24 -24,-24 -24,-48 v -142 l 24,-48 24,-24 48,-24 h 71 l 48,24 23,24 24,48 v 142 l -24,48 -23,24 -48,24 h -71"
           id="path176" />
        <path
           d="m 51347,28992 h 191"
           id="path178" />
        <path
           d="m 51419,28826 v 428 l 23,48 48,24 h 48"
           id="path180" />
        <path
           d="m 51776,29326 -48,-24 -24,-24 -24,-48 v -142 l 24,-48 24,-24 48,-24 h 71 l 48,24 24,24 23,48 v 142 l -23,48 -24,24 -48,24 h -71"
           id="path182" />
        <path
           d="m 52157,29326 v -334"
           id="path184" />
        <path
           d="m 52157,29088 23,-48 24,-24 48,-24 h 48"
           id="path186" />
        <path
           d="m 52347,29373 h 381"
           id="path188" />
        <path
           d="m 52847,29326 v -500 h 119 l 72,24 47,47 24,48 24,95 v 71 l -24,96 -24,47 -47,48 -72,24 h -119"
           id="path190" />
        <path
           d="m 53633,29278 -24,24 -71,24 h -48 l -71,-24 -48,-48 -24,-47 -24,-96 v -71 l 24,-95 24,-48 48,-47 71,-24 h 48 l 71,24 24,23"
           id="path192" />
        <path
           d="m 53728,29373 h 381"
           id="path194" />
        <path
           d="m 54204,29183 h 238"
           id="path196" />
        <path
           d="m 54157,29326 166,-500 167,500"
           id="path198" />
        <path
           d="m 54895,29326 h -238 v -500"
           id="path200" />
        <path
           d="m 54990,28826 h 286"
           id="path202" />
        <path
           d="m 55133,29326 v -500"
           id="path204" />
      </g>
    </g>
  </g>
  <g
     style="fill:#006464;fill-opacity:0;stroke:#006464;stroke-width:60;stroke-linecap:round;stroke-linejoin:round;stroke-opacity:1"
     id="g246"
     transform="translate(-46570,-19696)">
    <g
       id="g212" />
    <g
       style="fill:#840000;fill-opacity:0;stroke:#840000;stroke-width:60;stroke-linecap:round;stroke-linejoin:round;stroke-opacity:1"
       id="g224">
      <circle
         cx="47300"
         cy="24600"
         r="200"
         id="circle214" />
      <path
         style="fill:none;fill-opacity:0;stroke:#840000;stroke-width:60;stroke-linecap:round;stroke-linejoin:round;stroke-opacity:1"
         d="m 47200,24400 -600,-1200"
         id="path216" />
      <circle
         cx="47300"
         cy="23000"
         r="200"
         id="circle218" />
      <path
         d="m 47300,24800 v 1000"
         id="path220" />
      <path
         d="M 47300,22800 V 21800"
         id="path222" />
    </g>
    <g
       style="fill:#006464;fill-opacity:0;stroke:#006464;stroke-width:60;stroke-linecap:round;stroke-linejoin:round;stroke-opacity:1"
       id="g244">
      <text
         x="49007.441"
         y="23549.961"
         textLength="2012.3622"
         font-size="666.654px"
         lengthAdjust="spacingAndGlyphs"
         text-anchor="middle"
         opacity="0"
         id="text226">SW1A</text>
      <g
         class="stroked-text"
         id="g242">
        <desc
           id="desc228">SW1A</desc>
        <path
           d="m 48126,23502 71,24 h 119 l 48,-24 24,-24 24,-48 v -47 l -24,-48 -24,-24 -48,-23 -95,-24 -47,-24 -24,-24 -24,-48 v -47 l 24,-48 24,-24 47,-23 h 119 l 72,23"
           id="path230" />
        <path
           d="m 48578,23026 119,500 96,-358 95,358 119,-500"
           id="path232" />
        <path
           d="m 49459,23526 h -285"
           id="path234" />
        <path
           d="m 49316,23526 v -500 l -47,71 -48,48 -47,23"
           id="path236" />
        <path
           d="m 49650,23383 h 238"
           id="path238" />
        <path
           d="m 49602,23526 167,-500 166,500"
           id="path240" />
      </g>
    </g>
  </g>
  <g
     style="fill:#006464;fill-opacity:0;stroke:#006464;stroke-width:60;stroke-linecap:round;stroke-linejoin:round;stroke-opacity:1"
     id="g272"
     transform="translate(-46570,-19696)">
    <g
       id="g248" />
    <g
       style="fill:#840000;fill-opacity:0;stroke:#840000;stroke-width:60;stroke-linecap:round;stroke-linejoin:round;stroke-opacity:1"
       id="g256">
      <path
         style="fill:none;fill-opacity:0;stroke:#840000;stroke-width:60;stroke-linecap:round;stroke-linejoin:round;stroke-opacity:1"
         d="m 53100,21300 300,-500"
         id="path250" />
      <path
         style="fill:none;fill-opacity:0;stroke:#840000;stroke-width:60;stroke-linecap:round;stroke-linejoin:round;stroke-opacity:1"
         d="M 53400,21800 V 20800"
         id="path252" />
      <path
         style="fill:none;fill-opacity:0;stroke:#840000;stroke-width:60;stroke-linecap:round;stroke-linejoin:round;stroke-opacity:1"
         d="m 53400,20800 300,500"
         id="path254" />
    </g>
    <g
       style="fill:#006464;fill-opacity:0;stroke:#006464;stroke-width:60;stroke-linecap:round;stroke-linejoin:round;stroke-opacity:1"
       id="g270">
      <text
         x="53400"
         y="20249.961"
         textLength="1488.5826"
         font-size="666.654px"
         lengthAdjust="spacingAndGlyphs"
         text-anchor="middle"
         opacity="0"
         id="text258">VCC</text>
      <g
         class="stroked-text"
         id="g268">
        <desc
           id="desc260">VCC</desc>
        <path
           d="m 52733,19726 167,500 166,-500"
           id="path262" />
        <path
           d="m 53519,20178 -24,24 -72,24 h -47 l -72,-24 -47,-48 -24,-47 -24,-96 v -71 l 24,-95 24,-48 47,-48 72,-23 h 47 l 72,23 24,24"
           id="path264" />
        <path
           d="m 54019,20178 -24,24 -72,24 h -47 l -72,-24 -47,-48 -24,-47 -24,-96 v -71 l 24,-95 24,-48 47,-48 72,-23 h 47 l 72,23 24,24"
           id="path266" />
      </g>
    </g>
  </g>
  <g
     style="fill:#006464;fill-opacity:0;stroke:#006464;stroke-width:60;stroke-linecap:round;stroke-linejoin:round;stroke-opacity:1"
     id="g306"
     transform="translate(-46570,-19696)">
    <g
       id="g274" />
    <g
       style="fill:#840000;fill-opacity:0;stroke:#840000;stroke-width:60;stroke-linecap:round;stroke-linejoin:round;stroke-opacity:1"
       id="g286">
      <circle
         cx="59100"
         cy="24600"
         r="200"
         id="circle276" />
      <path
         style="fill:none;fill-opacity:0;stroke:#840000;stroke-width:60;stroke-linecap:round;stroke-linejoin:round;stroke-opacity:1"
         d="m 59000,24400 -600,-1200"
         id="path278" />
      <circle
         cx="59100"
         cy="23000"
         r="200"
         id="circle280" />
      <path
         d="m 59100,24800 v 1000"
         id="path282" />
      <path
         d="M 59100,22800 V 21800"
         id="path284" />
    </g>
    <g
       style="fill:#006464;fill-opacity:0;stroke:#006464;stroke-width:60;stroke-linecap:round;stroke-linejoin:round;stroke-opacity:1"
       id="g304">
      <text
         x="61007.441"
         y="23549.961"
         textLength="2012.3622"
         font-size="666.654px"
         lengthAdjust="spacingAndGlyphs"
         text-anchor="middle"
         opacity="0"
         id="text288">SW2A</text>
      <g
         class="stroked-text"
         id="g302">
        <desc
           id="desc290">SW2A</desc>
        <path
           d="m 60126,23502 71,24 h 119 l 48,-24 24,-24 24,-48 v -47 l -24,-48 -24,-24 -48,-23 -95,-24 -47,-24 -24,-24 -24,-48 v -47 l 24,-48 24,-24 47,-23 h 119 l 72,23"
           id="path292" />
        <path
           d="m 60578,23026 119,500 96,-358 95,358 119,-500"
           id="path294" />
        <path
           d="m 61174,23073 23,-24 48,-23 h 119 l 48,23 23,24 24,48 v 47 l -24,72 -285,286 h 309"
           id="path296" />
        <path
           d="m 61650,23383 h 238"
           id="path298" />
        <path
           d="m 61602,23526 167,-500 166,500"
           id="path300" />
      </g>
    </g>
  </g>
  <g
     style="fill:#006464;fill-opacity:0;stroke:#006464;stroke-width:60;stroke-linecap:round;stroke-linejoin:round;stroke-opacity:1"
     id="g308"
     transform="translate(-46570,-19696)" />
  <g
     style="fill:#009600;fill-opacity:0;stroke:#009600;stroke-width:60;stroke-linecap:round;stroke-linejoin:round;stroke-opacity:1"
     id="g326"
     transform="translate(-46570,-19696)">
    <path
       d="M 47300,40700 H 59100"
       id="path310" />
    <path
       d="m 59100,31500 v 5200"
       id="path312" />
    <path
       d="m 59100,25800 v 5700"
       id="path314" />
    <path
       d="m 47300,31500 v 5200"
       id="path316" />
    <path
       d="m 47300,25800 v 5700"
       id="path318" />
    <path
       d="M 50300,31500 H 47300"
       id="path320" />
    <path
       d="M 59100,31500 H 55300"
       id="path322" />
    <path
       d="M 47300,21800 H 59100"
       id="path324" />
  </g>
  <g
     style="fill:#009600;fill-opacity:1;stroke:#009600;stroke-width:60;stroke-linecap:round;stroke-linejoin:round;stroke-opacity:1"
     id="g332"
     transform="translate(-46570,-19696)">
    <circle
       cx="47300"
       cy="31500"
       r="180"
       id="circle328" />
    <circle
       cx="59100"
       cy="31500"
       r="180"
       id="circle330" />
  </g>
</svg>
